<svg 
  width="512" 
  height="512" 
  viewBox="0 0 512 512" 
  fill="none" 
  xmlns="http://www.w3.org/2000/svg"
>
  <circle cx="256" cy="256" r="240" fill="#00BFFF"/>

  <rect 
    x="136" 
    y="200" 
    width="240" 
    height="160" 
    fill="white" 
    rx="8"
  />

  <path 
    d="M 136 200 L 256 290 L 376 200" 
    fill="#DBEAFE" 
  />

  <path 
    d="M 136 200 L 256 290 L 376 200 
       M 136 200 L 136 360 L 376 360 L 376 200" 
    stroke="#000000" 
    strokeWidth="6"
    strokeLinejoin="round"
    fill="none"
  />

  <line 
    x1="136" 
    y1="200" 
    x2="256" 
    y2="290" 
    stroke="#000000" 
    strokeWidth="6"
  />

  <line 
    x1="376" 
    y1="200" 
    x2="256" 
    y2="290" 
    stroke="#000000" 
    strokeWidth="6"
  />

  <circle cx="256" cy="150" r="20" fill="#FBBF24"/>

  <path 
    d="M 256 135 L 259 145 L 270 145 
       L 261 152 L 264 162 L 256 156 
       L 248 162 L 251 152 L 242 145 
       L 253 145 Z" 
    fill="white"
  />
</svg>
